<svg xmlns="http://www.w3.org/2000/svg" viewBox="0 0 278.31 320.52"><defs><style>.cls-1{fill:#114a57;}.cls-2{fill:#54b159;}.cls-3{fill:#2b9eab;}.cls-4{fill:#4d9c00;}.cls-5{fill:#c9df00;}.cls-6{fill:#fefefe;}</style></defs><title>Asset 14</title><g id="Layer_2" data-name="Layer 2"><g id="Objects"><text></text><path d="M172.67,312.64c1.06-2,1.58-4.5,3.05-5.37,1.66-1,3.38,1.36,5.15,2.08a20.48,20.48,0,0,0,9.61,1.4,3.68,3.68,0,0,0,3.48-2.82,3.32,3.32,0,0,0-2-3.94c-3.36-1.74-7.1-2.35-10.64-3.56-3.06-1.05-5.63-2.66-6.66-5.91-1.71-5.35.77-11.4,7.24-13.51,5.82-1.89,11.58-.85,16.89,2.3,1,.61,1.76,1.14.65,2.49a24.18,24.18,0,0,0-2.17,3.94,34.47,34.47,0,0,0-3.74-2c-3-1.16-6-2.05-9.25-.93-1.5.52-2.48,1.29-2.56,3s.1,3.07,1.94,3.92c3,1.39,6.26,1.71,9.3,2.86,2.59,1,5.33,1.8,7,4.26,3.54,5.36,2.07,14.1-7.28,16C185.5,318.35,179,316.43,172.67,312.64Z"/><path class="cls-1" d="M146.5,288.11c-.6.45-1.12.87-1.67,1.24-3.25,2.15-3.23,2.12-6.19-.57a9.23,9.23,0,0,0-13.71,1.66c-4.82,6.84-2.12,15.7,2.68,18.92,3.76,2.51,9.69,1.95,12.54-2.11,1.06-1.5,1.69-1.51,3.11-.72,4,2.26,4.14,3.47.46,6.48-11.33,9.28-25.43,2.28-28.06-10.75-1.65-8.16,1-14.89,8-19.52a16.8,16.8,0,0,1,20.18,1.62A21.24,21.24,0,0,1,146.5,288.11Z"/><path class="cls-2" d="M79.48,298.45c0-5.34,0-10.68,0-16,0-1.51.17-2.24,2-2.23,5.15,0,5.15-.07,5.15,5.16,0,9.74-.06,19.49.05,29.23,0,2-.54,2.4-2.41,2.36-4.76-.11-4.76,0-4.76-4.78Z"/><path class="cls-1" d="M138.38,203.61a.11.11,0,0,0-.18,0c-5,7.78-9.94,15.48-14.87,23.21q-6.9,10.81-13.76,21.68c-2.17,3.41-3.92,7.14-6.92,9.94-5.44,5.08-11.77,5.69-18.4,3-5.79-2.38-9.42-6.6-10.37-13.12-.75-5.09,1.3-9.14,3.79-13.09q14.1-22.35,28.37-44.6c5.9-9.24,11.79-18.47,17.78-27.65a16.93,16.93,0,0,1,28.6.06c9.76,14.88,19.56,29.74,29.27,44.65,6.37,9.8,12.45,19.8,18.95,29.52,7.68,11.49-.76,24-12,25.35-7.53.92-13.05-1.72-17.17-8.09-9.61-14.88-19.43-29.62-29.05-44.5C141.05,207.86,139.67,205.81,138.38,203.61Z"/><path class="cls-3" d="M70.53,154.9a.1.1,0,0,0,0-.17c-12.43-3.68-24.23-7.15-36-10.66-7.82-2.34-15.67-4.58-23.42-7.14-10-3.32-12.85-13.53-10-22.07,3.09-9.12,11.41-13.11,22.41-9.61,18,5.75,36.25,10.94,54.39,16.36,9.19,2.74,18.41,5.39,27.58,8.19,12.8,3.9,16.21,19,7.11,28.93-5.7,6.2-11.06,12.71-16.62,19.05-4.22,4.82-8.55,9.55-12.77,14.37-5.39,6.14-10.68,12.37-16.08,18.51-4.51,5.13-8.93,10.35-13.7,15.24-5.56,5.69-15.32,5.18-21.55-.38-7.26-6.48-8-18.17-.5-26,5.94-6.19,11.33-12.92,17-19.38,4.11-4.69,8.3-9.32,12.42-14C63.94,162.56,67.07,158.9,70.53,154.9Z"/><path d="M206.05,154.44c3.65,4.58,7.25,9.17,10.93,13.7,4.65,5.73,9.39,11.38,14,17.12s8.89,11.33,13.43,16.91c6.93,8.52,3.1,20.59-5.72,25.56-8,4.51-16.32,1.73-21.24-4.93-4.49-6.06-9.54-11.69-14.28-17.56-5.26-6.51-10.43-13.09-15.68-19.61-4.51-5.62-9.08-11.19-13.61-16.8-4.1-5.08-8.57-9.93-12.15-15.35a17,17,0,0,1,10.14-25.64q37.29-9.68,74.66-19c5.48-1.38,10.83-3.44,16.64-3.44,7.08,0,12.54,5.13,14.34,11.58,2.31,8.3-.56,16-7.49,20.16-3.74,2.23-8.19,2.8-12.38,3.87-17,4.35-33.95,8.59-50.92,12.89C206.51,153.93,206.34,154.19,206.05,154.44Z"/><path class="cls-4" d="M96.78,81a.11.11,0,0,0,.14-.1c.09-4.31-.82-8.13-1.2-12-.46-4.57-1.21-9.12-1.83-13.68-.82-6.13-1.66-12.26-2.43-18.4-.61-5-.92-10-1.77-14.86A18.67,18.67,0,0,1,91,10.79c2.41-5.1,6.68-8,12.15-9.16A17.06,17.06,0,0,1,117,4.39c3.62,2.51,5.24,6.11,5.88,10.13,1.19,7.6,2.11,15.25,3.07,22.88.91,7.31,1.67,14.65,2.61,22s2,14.41,3,21.62c.77,6,1.33,12,2.14,18,.49,3.61.85,7.17,0,10.76-1.37,5.72-7,10.86-12.72,12a20.31,20.31,0,0,1-10.35-.87q-29.31-9.21-58.65-18.37C43.61,99.88,35.27,97.4,27,94.8c-8.72-2.74-12.84-11.06-10.2-20C19.67,65,29,59.56,40.56,63.38c14.85,4.9,29.83,9.4,44.75,14.06Z"/><path class="cls-5" d="M179.22,80.33a.12.12,0,0,0,.14.12c12-3.44,23.61-6.8,35.27-10.13,7.86-2.25,15.69-4.63,23.62-6.63,10.15-2.55,18.76,2.85,21.09,13,2.11,9.2-2.37,17.16-13.4,20.07-11.29,3-22.47,6.37-33.71,9.56-14.53,4.13-29.07,8.22-43.58,12.4a51,51,0,0,1-8.25,2,16.85,16.85,0,0,1-16.76-8.58c-2.29-4.1-2.13-8.42-1.61-12.77.61-5.14,1.53-10.24,2.3-15.36,1.1-7.27,2.17-14.54,3.27-21.81.76-5,1.58-10.06,2.32-15.1S151.29,37,152.06,32c.94-6.19,2.07-12.35,2.94-18.55C156.1,5.52,161.86.08,169.94,0c7.14-.07,12.74,2.48,16.44,8.72,2.54,4.29,2.36,8.87,1.56,13.59C186.87,28.65,186,35,185.05,41.39c-1,6.18-2,12.36-3,18.55q-.79,5.07-1.52,10.16C180.12,73.42,179.7,76.75,179.22,80.33Z"/><path class="cls-6" d="M138.09,184.91c-5.54,8.74-10.9,17.22-16.3,25.68-8.28,13-16.64,25.92-24.84,39-1.73,2.76-4,3.74-7,3.22a7.79,7.79,0,0,1-6.27-5.35c-.62-1.75.24-3.31,1.12-4.71C91,233,97.29,223.29,103.47,213.57q13.27-20.83,26.48-41.71c.84-1.32,1.72-2.62,2.64-3.88,3.16-4.37,9-3.44,12.17,1.48,8,12.57,16.24,25,24.37,37.51q11.58,17.82,23.14,35.64c2.26,3.48,1.66,6.92-1.94,9-3.87,2.23-7.71,1.67-10-1.75-7.89-12.06-15.65-24.2-23.47-36.3Q148,199.76,139.07,186A9.43,9.43,0,0,0,138.09,184.91Z"/><path class="cls-6" d="M107.53,146.5c.44,1.87-.77,3.42-2,4.8-3.94,4.62-8,9.09-12,13.67-5.32,6.09-10.56,12.25-15.87,18.34-4,4.58-8.06,9.08-12.06,13.65-5.48,6.28-10.92,12.6-16.41,18.88a31.36,31.36,0,0,1-3,3.06,4.58,4.58,0,0,1-5,.67c-5.53-2.23-6.92-7.76-2.93-12.48s8.42-9.44,12.58-14.2c5.32-6.09,10.55-12.25,15.87-18.34,4.1-4.7,8.28-9.34,12.42-14,2.69-3,5.38-6.05,8-9.09,1-1.12,1.15-1.87-.72-2.42-12-3.46-23.88-7-35.81-10.59q-14.87-4.42-29.73-8.9c-2.42-.73-4.86-1.41-7.19-2.36a6.76,6.76,0,0,1-3.91-6.52A7.41,7.41,0,0,1,15.1,114c1.85-.51,3.49.35,5.11.82,15.26,4.48,30.47,9.1,45.71,13.63q17.3,5.15,34.61,10.19C105.29,140,107.54,142.35,107.53,146.5Z"/><path class="cls-6" d="M188.51,148.53a.1.1,0,0,0,0,.16c2.85,3.59,5.54,7,8.29,10.42,5.38,6.64,10.82,13.24,16.19,19.89,4.63,5.73,9.21,11.5,13.81,17.25,3.4,4.25,6.9,8.43,10.17,12.78,2.19,2.9,1.12,6.7-2.32,9.44-2.85,2.26-5.74,2.13-8.21-.76-4-4.71-7.87-9.59-11.78-14.4q-6.17-7.6-12.32-15.24-7.83-9.66-15.66-19.34-6.93-8.61-13.81-17.25a39.12,39.12,0,0,1-2.47-3.17,7,7,0,0,1,4.09-10.78c3.92-1.14,7.9-2.07,11.86-3.08q36.48-9.28,73-18.57c4.46-1.14,7.79.16,8.64,3.7,1.1,4.61-.36,8.42-5,9.68-7.4,2-14.87,3.79-22.3,5.67q-24.37,6.18-48.74,12.38A34.3,34.3,0,0,0,188.51,148.53Z"/><path class="cls-6" d="M116.1,112h0c-3-.32-6.74-2-10.55-3.17C85.78,102.76,66.1,96.48,46.4,90.29q-7.78-2.45-15.59-4.78c-3.64-1.09-5.9-4-4.33-8.25s4.83-6.16,8.7-5l47.9,14.94Q95.05,91,107,94.73c1.37.43,2.27,1.15,1.83-1.41-1-5.94-1.48-12-2.25-17.95S105,63.61,104.19,57.73c-.59-4.49-1.08-9-1.65-13.47-.76-6-1.61-11.94-2.33-17.92-.38-3.08-1-6.16-.71-9.29s3.67-5.84,7.64-5.83c3.44,0,5.66,2.18,6.1,5.73,1.14,9.05,2.39,18.09,3.52,27.13.92,7.32,1.67,14.65,2.61,22s2,14.41,3,21.62c.74,5.48,1.48,11,2.06,16.44C124.85,108.38,121.4,112,116.1,112Z"/><path class="cls-6" d="M167.56,94.18a.11.11,0,0,0,.14.06c5.66-1.64,11.3-3.3,16.94-4.92l38-10.89c5.93-1.71,11.88-3.38,17.8-5.14,4-1.19,7.37.57,8.79,4.76s.1,7.1-4.2,8.46c-5.24,1.66-10.57,3.09-15.86,4.61l-28.39,8.14c-13.34,3.81-26.67,7.67-40,11.43a7.38,7.38,0,0,1-9.22-8.49c1.2-6.4,2-12.87,3-19.31.94-6.11,1.91-12.21,2.84-18.32s1.84-12.23,2.75-18.34,1.83-12.4,2.76-18.59c.59-4,1.3-7.92,1.8-11.89s2.58-6.12,6.05-6c4.16.1,7.66,3.13,7.7,6.81.05,4.55-1.17,9-1.74,13.43-.82,6.38-1.87,12.72-2.82,19.08q-1.08,7.2-2.18,14.38c-.78,5.12-1.6,10.23-2.4,15.34q-.94,6.06-1.9,12.12A5.74,5.74,0,0,0,167.56,94.18Z"/></g></g></svg>